<?xml version="1.0" encoding="utf-8"?>

<!DOCTYPE svg PUBLIC "-//W3C//DTD SVG 1.1//EN" "http://www.w3.org/Graphics/SVG/1.1/DTD/svg11.dtd">
<!-- Uploaded to: SVG Repo, www.svgrepo.com, Generator: SVG Repo Mixer Tools -->
<svg version="1.1" id="_x32_" xmlns="http://www.w3.org/2000/svg" xmlns:xlink="http://www.w3.org/1999/xlink" 
	 width="800px" height="800px" viewBox="0 0 512 512"  xml:space="preserve">
<style type="text/css">
<![CDATA[
	.st0{fill:#000000;}
]]>
</style>
<g>
	<path class="st0" d="M171.719,330.281l-11.953-47.813l-35.781,24.438c-7.328-16.125-16.203-26.266-22.578-24.438
		c-8.719,2.516-9.516,26.406-1.766,53.375c7.734,26.953,21.094,46.781,29.813,44.281c6.891-2,8.828-17.328,5.516-36.984
		L171.719,330.281z"/>
	<path class="st0" d="M326.875,330.281l11.953-47.813l35.797,24.438c7.328-16.125,16.188-26.266,22.578-24.438
		c8.719,2.516,9.516,26.406,1.766,53.375c-7.75,26.953-21.094,46.781-29.828,44.281c-6.891-2-8.828-17.328-5.5-36.984
		L326.875,330.281z"/>
	<path class="st0" d="M259.344,52.391c0-0.172,0-0.344,0-0.516c0-28.656-4.5-51.875-10.047-51.875
		c-5.531,0-10.031,23.219-10.031,51.875c0,0.172,0,0.344,0,0.516c-47.953,5.016-85.328,45.578-85.328,94.859
		c0,35.125,38.469,185.719,38.469,185.719h113.781c0,0,38.484-150.594,38.484-185.719C344.672,97.969,307.297,57.406,259.344,52.391
		z M249.297,185.391c-21.063,0-38.141-17.078-38.141-38.141c0-21.078,17.078-38.156,38.141-38.156
		c21.078,0,38.156,17.078,38.156,38.156C287.453,168.313,270.375,185.391,249.297,185.391z"/>
	<path class="st0" d="M381.172,461.797c-8.453,0-16.422,2.047-23.469,5.609c-0.781-18.469-16.016-33.203-34.688-33.203
		c-3.109,0-6.125,0.422-9,1.172c-1.656-14.938-12.922-26.984-27.484-29.828c-2.563-8.125-10.172-14.016-19.156-14.016
		c-1.609,0-3.172,0.188-4.688,0.563c-2-26.141-2-47.406-2-47.406h-23.422c0,0,0,28.156-3.047,59.516
		c-2.516-0.625-5.125-0.953-7.828-0.953c-18.016,0-32.625,14.594-32.625,32.625c0,1.641,0.125,3.281,0.359,4.859
		c-2.281-0.453-4.641-0.688-7.063-0.688c-14.953,0-27.813,8.938-33.563,21.734c-4.531-1.063-9.25-1.656-14.125-1.656
		c-30.594,0-55.938,22.5-60.375,51.875h354C432.109,484.125,409.25,461.797,381.172,461.797z"/>
</g>
</svg>